<svg width="25" height="24" viewBox="0 0 25 24" fill="none" xmlns="http://www.w3.org/2000/svg">
<path d="M2.92969 15.317L1.06509 14.8957C0.518603 16.025 0 17.2936 0 18.7551C0 20.1886 0.497607 21.4418 1.06509 22.6145L7.37305 21.1892V24L9.57031 22.8747L11.7676 24V21.1907L18.0263 22.6153C18.5686 21.4947 19.0918 20.2228 19.0918 18.7551C19.0918 18.5021 19.0735 18.2503 19.0428 18.0049H25V0H2.92969V15.317ZM1.90088 20.8891C1.71035 20.3731 1.46484 19.5532 1.46484 18.7551C1.46484 17.9568 1.7104 17.1368 1.90088 16.621L7.37305 17.8574V19.6527L1.90088 20.8891ZM10.3027 21.5723L9.57031 21.1972L8.83789 21.5723V18.0048H10.3027V21.5723ZM17.1913 20.8882L11.7676 19.6537V17.8564L17.1913 16.6219C17.3817 17.138 17.627 17.9574 17.627 18.755C17.627 19.5529 17.3817 20.3723 17.1913 20.8882V20.8882ZM23.5352 1.50041V16.5045H18.7038C18.4637 15.7521 18.2701 15.3969 18.0263 14.8949L10.9548 16.5045H8.18535L4.39453 15.6479V1.50041H23.5352Z" fill="black"/>
<path d="M8.83789 3.00085H19.0918V4.50126H8.83789V3.00085Z" fill="black"/>
<path d="M5.85938 9.00244H22.0703V10.5028H5.85938V9.00244Z" fill="black"/>
<path d="M8.83789 12.0033H19.0918V13.5037H8.83789V12.0033Z" fill="black"/>
<path d="M10.3027 6.00159H11.7676V7.50199H10.3027V6.00159Z" fill="black"/>
<path d="M13.2324 6.00159H14.6973V7.50199H13.2324V6.00159Z" fill="black"/>
<path d="M16.1621 6.00159H17.627V7.50199H16.1621V6.00159Z" fill="black"/>
</svg>
