<svg width="21" height="25" viewBox="0 0 21 25" fill="none" xmlns="http://www.w3.org/2000/svg">
<path d="M17.9016 16.333L16.4185 15.9022L13.1919 13.8172V13.3394C14.1261 12.6423 14.7676 11.5767 14.8868 10.3553C15.3554 10.2807 15.7143 9.87789 15.7143 9.39371V8.07999C15.7143 8.07491 15.7138 8.06993 15.7135 8.06486V6.4007C15.9002 6.26847 16.0187 6.05309 16.0187 5.81149V4.28854L18.2454 3.91329C18.6114 3.85162 18.8746 3.56407 18.9004 3.19772C18.9262 2.83136 18.7059 2.51046 18.3522 2.39918L10.8454 0.0369751C10.6887 -0.0123413 10.5233 -0.0122925 10.3667 0.0369263L2.85985 2.39918C2.50612 2.51046 2.2858 2.83136 2.31161 3.19767C2.328 3.43043 2.44043 3.63112 2.61396 3.76256V5.75411H2.5956C2.17287 5.75411 1.82897 6.09435 1.82897 6.51256V7.50114L1.33408 10.3748C1.24855 10.8718 1.63549 11.3267 2.14632 11.3267H3.82188C4.33158 11.3267 4.71985 10.8729 4.63412 10.3747L4.13924 7.50114V6.51256C4.13924 6.09435 3.79533 5.75411 3.3726 5.75411H3.35429V3.97858L5.19495 4.28873V5.81149C5.19495 6.05206 5.31286 6.2671 5.49863 6.39952L5.49932 8.08014V9.39371C5.49932 9.87794 5.85828 10.2807 6.32681 10.3553C6.44601 11.576 7.08684 12.6411 8.02014 13.3383V13.8183L4.79418 15.9029L3.31229 16.3332C1.72655 16.7937 0.60688 18.2339 0.60688 19.9082V20.9996C0.60688 21.2018 0.772565 21.3658 0.977044 21.3658C1.18152 21.3658 1.34721 21.2019 1.34721 20.9996V19.9082C1.34721 18.5886 2.24098 17.4075 3.52082 17.0359L4.90158 16.635L10.4178 19.8778C10.5298 19.9436 10.678 19.9471 10.796 19.8778L16.3126 16.6348L17.6932 17.0358C18.9728 17.4074 19.8666 18.5885 19.8666 19.9079V23.4449C19.8666 23.8986 19.4935 24.2677 19.035 24.2677H17.4034V22.6892C17.4034 22.4869 17.2377 22.323 17.0333 22.323C16.8288 22.323 16.6631 22.4869 16.6631 22.6892V24.2677H4.54894V22.6892C4.54894 22.4869 4.38325 22.323 4.17877 22.323C3.97429 22.323 3.80861 22.4869 3.80861 22.6892V24.2677H2.17875C1.72019 24.2677 1.34711 23.8986 1.34711 23.4449V22.7114C1.34711 22.5092 1.18142 22.3452 0.976946 22.3452C0.772467 22.3452 0.606781 22.5091 0.606781 22.7114V23.4449C0.606781 24.3024 1.31192 25 2.1787 25H19.0349C19.9016 25 20.6068 24.3024 20.6068 23.4449V19.9079C20.6068 18.2731 19.5253 16.8046 17.9016 16.333V16.333ZM3.82183 10.5943H2.14632C2.09455 10.5943 2.05506 10.5485 2.06385 10.4977L2.5115 7.8983H3.45665L3.90431 10.4977C3.91304 10.5484 3.87385 10.5943 3.82183 10.5943V10.5943ZM3.39891 6.51256V7.16593H2.5692V6.51256C2.5692 6.49816 2.58099 6.48649 2.59555 6.48649H3.3725C3.38711 6.48644 3.39891 6.49816 3.39891 6.51256V6.51256ZM9.28295 18.2213L9.43027 18.4453L5.65119 16.2237L8.04991 14.6737C8.15868 15.9364 8.57939 17.1515 9.28295 18.2213ZM9.28038 16.6404C10.1517 16.7629 11.0615 16.763 11.9332 16.6404C11.7648 17.0505 11.5572 17.4462 11.3102 17.8219L10.6068 18.8914L9.90344 17.8219C9.65642 17.4462 9.44883 17.0505 9.28038 16.6404V16.6404ZM11.9307 18.2213C12.6342 17.1515 13.0549 15.9364 13.1637 14.6737L15.5624 16.2237L11.7833 18.4453L11.9307 18.2213ZM14.0959 6.53707H14.9733V7.71373H14.5378C14.2941 7.71373 14.0959 7.51764 14.0959 7.27657V6.53707H14.0959ZM3.08422 3.09713L10.5912 0.734827C10.6008 0.731799 10.6112 0.73175 10.621 0.734875L18.1279 3.09713C18.1434 3.10201 18.1647 3.10865 18.162 3.14679C18.1593 3.18488 18.1373 3.18854 18.1212 3.19127L15.6392 3.60948L14.7074 3.49547C14.5046 3.47062 14.3198 3.61329 14.2946 3.81398C14.2696 4.01471 14.4137 4.19752 14.6166 4.22233L15.2784 4.30333V5.8047L5.93523 5.80436V4.30328L9.76554 3.83439C10.3235 3.76617 10.8891 3.76617 11.4466 3.83439L12.8963 4.01178C13.0991 4.03663 13.284 3.89401 13.3091 3.69332C13.3342 3.49259 13.1901 3.30978 12.9872 3.28492L11.5375 3.10753C10.9197 3.0319 10.2929 3.0319 9.67468 3.10753L5.57355 3.60958L3.09083 3.19127C3.07474 3.18854 3.05278 3.18488 3.05007 3.14679C3.0474 3.10865 3.06867 3.10197 3.08422 3.09713V3.09713ZM6.2394 7.71373L6.23891 6.53707H7.11768V7.27662C7.11768 7.51764 6.91947 7.71378 6.67575 7.71378H6.2394V7.71373ZM7.05411 10.1671C7.03506 9.86886 6.78453 9.63527 6.48381 9.63527C6.34912 9.63527 6.23955 9.52687 6.23955 9.39366V8.44615H6.67575C7.32759 8.44615 7.85796 7.9215 7.85796 7.27662V6.53707H13.3556V7.27662C13.3556 7.9215 13.886 8.44615 14.5378 8.44615H14.974V9.39366C14.974 9.52687 14.8644 9.63527 14.7298 9.63527C14.429 9.63527 14.1785 9.86886 14.1594 10.1671C14.0415 12.0162 12.481 13.4647 10.6068 13.4647C8.73249 13.4647 7.17202 12.0162 7.05411 10.1671V10.1671ZM10.6068 14.197C11.2652 14.197 11.8909 14.0481 12.4516 13.7833V14.0154C12.4516 14.6415 12.3662 15.2591 12.2018 15.8548C11.1959 16.0446 10.0586 16.0523 9.01179 15.8548C8.84739 15.2592 8.762 14.6416 8.762 14.0154C8.762 14.0076 8.76092 14.0001 8.76042 13.9924C8.76033 13.9909 8.76047 13.9894 8.76037 13.9879V13.7826C9.32149 14.0478 9.94781 14.197 10.6068 14.197V14.197Z" fill="black"/>
</svg>
