<svg width="36" height="36" viewBox="0 0 36 36" fill="none" xmlns="http://www.w3.org/2000/svg">
<circle cx="18" cy="18" r="18" fill="#FFA501"/>
<path d="M12.75 22.174C13.35 20.686 13.968 19.222 14.604 17.782C15.24 16.33 15.864 14.866 16.476 13.39H17.358L21.084 22.156C21.696 20.692 22.308 19.234 22.92 17.782C23.532 16.33 24.138 14.866 24.738 13.39H25.998C25.266 15.178 24.534 16.948 23.802 18.7C23.07 20.452 22.338 22.222 21.606 24.01H20.688L16.926 15.226L13.128 24.01H12.246C11.526 22.222 10.8 20.452 10.068 18.7C9.336 16.936 8.598 15.166 7.854 13.39H9.114L12.75 22.174ZM11.598 25.018H13.83C14.334 23.794 14.838 22.588 15.342 21.4C15.858 20.2 16.38 18.994 16.908 17.782L20.004 25.018H22.254L27.474 12.382H24.072C23.58 13.582 23.082 14.776 22.578 15.964C22.086 17.14 21.588 18.328 21.084 19.528L18.024 12.382H15.828L12.75 19.564L9.762 12.382H6.378L11.598 25.018ZM10.05 11.932L11.814 13.786L13.236 17.242C13.62 16.354 14.004 15.472 14.388 14.596C14.772 13.72 15.156 12.832 15.54 11.932H18.33L20.094 13.786L21.552 17.242L21.768 16.738C21.84 16.57 21.918 16.39 22.002 16.198C22.098 15.994 22.176 15.808 22.236 15.64C22.5 15.028 22.764 14.404 23.028 13.768C23.292 13.12 23.544 12.508 23.784 11.932H28.14L29.85 13.786L24.306 27.214H21.534L19.698 25.468L18.15 21.868C17.766 22.768 17.382 23.668 16.998 24.568C16.614 25.456 16.242 26.338 15.882 27.214H13.146L11.31 25.468L5.712 11.932H10.05Z" fill="black"/>
</svg>
